# xmcd
#
# Track frame offsets:
#	150
#	10926
#	24653
#	37192
#	51323
#	63639
#	74051
#	87258
#	101916
#	110291
#	120761
#	133144
#	146637
#	156498
#	167798
#	175539
#	186769
#	196070
#	208692
#	218697
#	230369
#	241872
#	252414
#	268852
#	280397
#	290431
#
# Disc length: 4029 seconds
# Revision: 0
# Processed by: cddbd v1.5.2PL0 Copyright (c) Steve Scherf et al.
# Submitted via: dBpowerAMP V12.0
#
DISCID=8d0fbb1a
DTITLE=Slim Dusty - Odds and Sods CD3 1964-1968
DYEAR=2017
DGENRE=Country
TTITLE0=Teenage Country Style
TTITLE1=I Haven't Changed A Bit
TTITLE2=If We Only Had Old Ireland Over Here
TTITLE3=The Decimal Currency Pub
TTITLE4=Dinki-Di Aussies
TTITLE5=You'd Better Be Waiting
TTITLE6=You Can Never Do Wrong In A Mothers Eyes
TTITLE7=Music My Dad Played To Me
TTITLE8=A Friend Indeed
TTITLE9=A Rose Of Red
TTITLE10=Daddy's Girl
TTITLE11=The Old Time Drovers Lament
TTITLE12=Happy Jack
TTITLE13=Night Watch Blues
TTITLE14=Slow Down
TTITLE15=The Desert Lair
TTITLE16=You Took The Joy Out Of Livin'
TTITLE17=We'll Have To Stick Together
TTITLE18=A Certain Kind Of Gold
TTITLE19=The Min Min Light
TTITLE20=The New Australian Bushman
TTITLE21=Roadliner
TTITLE22=Brigalow Hill
TTITLE23=Song Of The West
TTITLE24=Many Mothers
TTITLE25=If Only I Had A Home Sweet Home
EXTD=
EXTT0=
EXTT1=
EXTT2=
EXTT3=
EXTT4=
EXTT5=
EXTT6=
EXTT7=
EXTT8=
EXTT9=
EXTT10=
EXTT11=
EXTT12=
EXTT13=
EXTT14=
EXTT15=
EXTT16=
EXTT17=
EXTT18=
EXTT19=
EXTT20=
EXTT21=
EXTT22=
EXTT23=
EXTT24=
EXTT25=
PLAYORDER=
